<svg width="25" height="25" viewBox="0 0 25 25" fill="none" xmlns="http://www.w3.org/2000/svg">
<path d="M11.2966 0.151274L11.1053 0.302547L11.0814 3.53503L11.0575 6.76752H7.12834C3.37455 6.76752 3.18328 6.77548 3.00794 6.91879L2.81666 7.07006L2.79275 15.4777L2.77682 23.8854H1.54946H0.31414L0.154743 24.0924C-0.0604421 24.371 -0.0524723 24.5621 0.186622 24.801L0.377898 25H12.5H24.6221L24.8134 24.801C25.0525 24.5621 25.0604 24.371 24.8453 24.0924L24.6859 23.8854H23.4505H22.2232L22.2072 12.0939L22.1833 0.302547L21.9921 0.151274C21.8167 0.00796127 21.6095 0 16.6443 0C11.6791 0 11.4719 0.00796127 11.2966 0.151274ZM21.1074 12.5V23.8854H20.151H19.1947V21.043C19.1947 18.5111 19.1787 18.1927 19.0592 18.0573C18.9396 17.922 18.7563 17.914 16.6602 17.914C14.6519 17.914 14.3649 17.9299 14.2374 18.0494C14.1019 18.1688 14.094 18.3678 14.094 21.035V23.8854H13.1376H12.1812V12.5V1.11465H16.6443H21.1074V12.5ZM11.0654 15.8838V23.8854H7.47901H3.89259V15.8838V7.88217H7.47901H11.0654V15.8838ZM18.0789 21.457V23.8854H16.6443H15.2097V21.457V19.0287H16.6443H18.0789V21.457Z" fill="#4B8A37"/>
</svg>
